<svg width="181" height="41" viewBox="0 0 181 41" fill="none" xmlns="http://www.w3.org/2000/svg">
<path fill-rule="evenodd" clip-rule="evenodd" d="M23.7995 19.0441L18.7065 16.159C18.3324 15.947 17.8713 15.947 17.4971 16.159L12.4043 19.0441C12.2171 19.1501 12.1019 19.3461 12.1019 19.558V25.4068C12.1019 25.7344 12.3726 26 12.7065 26H15.3454C15.6793 26 15.9501 25.7344 15.9501 25.4068V21.7468C15.9501 21.419 16.2208 21.1534 16.5548 21.1534H19.6489C19.983 21.1534 20.2537 21.419 20.2537 21.7468V25.4068C20.2537 25.7344 20.5244 26 20.8583 26H23.4973C23.8312 26 24.1019 25.7344 24.1019 25.4068V19.558C24.1019 19.3461 23.9867 19.1501 23.7995 19.0441Z" fill="#2A42E8"/>
<mask id="mask0_0_64" style="mask-type:luminance" maskUnits="userSpaceOnUse" x="0" y="0" width="37" height="41">
<path fill-rule="evenodd" clip-rule="evenodd" d="M0.101868 0.117188H36.0539V40.9998H0.101868V0.117188Z" fill="white"/>
</mask>
<g mask="url(#mask0_0_64)">
<path fill-rule="evenodd" clip-rule="evenodd" d="M29.0908 19.1294V22.9066V25.3706C29.0908 25.7998 28.8637 26.1964 28.4952 26.4111L24.0178 29.0191L18.6604 32.1398C18.2917 32.3543 17.8378 32.3543 17.4693 32.1398L12.1117 29.0191V29.0039L7.66053 26.4111C7.29205 26.1964 7.06501 25.7998 7.06501 25.3706V22.9066V19.1294V16.6655C7.06501 16.2363 7.29205 15.8396 7.66053 15.625L12.4226 12.8512C12.7911 12.6366 13.245 12.6366 13.6135 12.8512L17.4824 15.1046C17.8508 15.3193 18.3048 15.3193 18.6733 15.1046L22.5421 12.8512C22.9108 12.6366 23.3647 12.6366 23.7332 12.8512L28.4952 15.625C28.8637 15.8396 29.0908 16.2363 29.0908 16.6655V19.1294ZM34.454 9.15607L19.6778 0.549625C18.6877 -0.0269582 17.4679 -0.0269582 16.4778 0.549625L1.70181 9.15607C0.711727 9.73282 0.101807 10.7987 0.101807 11.952V29.1649C0.101807 30.3182 0.711727 31.384 1.70181 31.9608L16.4778 40.5672C17.4679 41.144 18.6877 41.144 19.6778 40.5672L34.454 31.9608C35.4439 31.384 36.054 30.3182 36.054 29.1649V11.952C36.054 10.7987 35.4439 9.73282 34.454 9.15607Z" fill="#2A42E8"/>
</g>
<path d="M54.8859 30.28C53.5792 30.28 52.4685 30.028 51.5539 29.524C50.6392 29.0013 49.9392 28.2547 49.4539 27.284C48.9872 26.3133 48.7352 25.1653 48.6979 23.84C48.6792 23.56 48.6699 23.1867 48.6699 22.72C48.6699 22.2533 48.6792 21.88 48.6979 21.6C48.7352 20.256 48.9872 19.108 49.4539 18.156C49.9392 17.1853 50.6392 16.448 51.5539 15.944C52.4685 15.4213 53.5792 15.16 54.8859 15.16C55.8752 15.16 56.7245 15.3 57.4339 15.58C58.1619 15.8413 58.7592 16.196 59.2259 16.644C59.6925 17.0733 60.0472 17.5493 60.2899 18.072C60.5325 18.5947 60.6632 19.108 60.6819 19.612C60.7005 19.7987 60.6445 19.948 60.5139 20.06C60.3832 20.172 60.2339 20.228 60.0659 20.228H59.6739C59.4872 20.228 59.3472 20.1907 59.2539 20.116C59.1792 20.0227 59.0952 19.864 59.0019 19.64C58.6099 18.576 58.0685 17.8387 57.3779 17.428C56.7059 16.9987 55.8752 16.784 54.8859 16.784C53.6165 16.784 52.5619 17.176 51.7219 17.96C50.9005 18.7253 50.4619 19.9853 50.4059 21.74C50.3685 22.3933 50.3685 23.0467 50.4059 23.7C50.4619 25.4547 50.9005 26.724 51.7219 27.508C52.5619 28.2733 53.6165 28.656 54.8859 28.656C55.8752 28.656 56.7059 28.4507 57.3779 28.04C58.0685 27.6107 58.6099 26.864 59.0019 25.8C59.0952 25.576 59.1792 25.4267 59.2539 25.352C59.3472 25.2587 59.4872 25.212 59.6739 25.212H60.0659C60.2339 25.212 60.3832 25.268 60.5139 25.38C60.6445 25.492 60.7005 25.6413 60.6819 25.828C60.6632 26.2387 60.5792 26.6493 60.4299 27.06C60.2805 27.4707 60.0472 27.872 59.7299 28.264C59.4312 28.656 59.0579 29.0013 58.6099 29.3C58.1619 29.5987 57.6205 29.832 56.9859 30C56.3699 30.1867 55.6699 30.28 54.8859 30.28ZM68.3016 30.28C67.4056 30.28 66.5749 30.0933 65.8096 29.72C65.0629 29.3467 64.4563 28.852 63.9896 28.236C63.5229 27.6013 63.2896 26.892 63.2896 26.108C63.2896 24.8387 63.8029 23.8213 64.8296 23.056C65.8563 22.2907 67.1909 21.796 68.8336 21.572L73.2576 20.956V19.976C73.2576 18.9867 72.9496 18.212 72.3336 17.652C71.7363 17.0733 70.7749 16.784 69.4496 16.784C68.4789 16.784 67.6949 16.98 67.0976 17.372C66.5003 17.7453 66.0896 18.24 65.8656 18.856C65.7723 19.136 65.5949 19.276 65.3336 19.276H64.8856C64.6616 19.276 64.5029 19.22 64.4096 19.108C64.3163 18.9773 64.2696 18.828 64.2696 18.66C64.2696 18.3987 64.3629 18.072 64.5496 17.68C64.7549 17.288 65.0629 16.9053 65.4736 16.532C65.8843 16.14 66.4163 15.8133 67.0696 15.552C67.7229 15.2907 68.5163 15.16 69.4496 15.16C70.5509 15.16 71.4563 15.3093 72.1656 15.608C72.8936 15.9067 73.4536 16.2987 73.8456 16.784C74.2563 17.2507 74.5456 17.7733 74.7136 18.352C74.8816 18.9307 74.9656 19.5 74.9656 20.06V29.384C74.9656 29.5707 74.9096 29.72 74.7976 29.832C74.6856 29.944 74.5363 30 74.3496 30H73.8736C73.6869 30 73.5376 29.944 73.4256 29.832C73.3136 29.72 73.2576 29.5707 73.2576 29.384V28.068C73.0336 28.404 72.7163 28.74 72.3056 29.076C71.8949 29.412 71.3629 29.7013 70.7096 29.944C70.0749 30.168 69.2723 30.28 68.3016 30.28ZM68.5816 28.656C69.4403 28.656 70.2243 28.4693 70.9336 28.096C71.6429 27.7227 72.2029 27.1533 72.6136 26.388C73.0429 25.604 73.2576 24.624 73.2576 23.448V22.496L69.6456 23C68.1149 23.2053 66.9576 23.56 66.1736 24.064C65.3896 24.568 64.9976 25.2027 64.9976 25.968C64.9976 26.584 65.1749 27.088 65.5296 27.48C65.8843 27.872 66.3323 28.1707 66.8736 28.376C67.4336 28.5627 68.0029 28.656 68.5816 28.656ZM84.0133 30.28C83.0426 30.28 82.2026 30.1493 81.4933 29.888C80.8026 29.6267 80.2333 29.3187 79.7853 28.964C79.3373 28.5907 79.0013 28.2267 78.7773 27.872C78.572 27.5173 78.46 27.2467 78.4413 27.06C78.4226 26.8547 78.488 26.7053 78.6373 26.612C78.7866 26.5 78.9266 26.444 79.0573 26.444H79.4773C79.5893 26.444 79.6826 26.4627 79.7573 26.5C79.8506 26.5373 79.9626 26.64 80.0933 26.808C80.336 27.1253 80.616 27.4333 80.9333 27.732C81.2506 28.012 81.652 28.236 82.1373 28.404C82.6413 28.572 83.2666 28.656 84.0133 28.656C85.1333 28.656 86.0573 28.4413 86.7853 28.012C87.5133 27.5827 87.8773 26.948 87.8773 26.108C87.8773 25.5853 87.728 25.1653 87.4293 24.848C87.1493 24.5307 86.664 24.2507 85.9733 24.008C85.2826 23.7653 84.3493 23.5133 83.1733 23.252C81.9973 22.972 81.092 22.636 80.4573 22.244C79.8413 21.852 79.4213 21.404 79.1973 20.9C78.9733 20.3773 78.8613 19.8173 78.8613 19.22C78.8613 18.5667 79.048 17.932 79.4213 17.316C79.7946 16.6813 80.3453 16.168 81.0733 15.776C81.82 15.3653 82.7533 15.16 83.8733 15.16C84.788 15.16 85.5626 15.2813 86.1973 15.524C86.8506 15.7667 87.3826 16.0653 87.7933 16.42C88.204 16.756 88.5026 17.092 88.6893 17.428C88.8946 17.764 89.0066 18.0347 89.0253 18.24C89.044 18.4267 88.988 18.576 88.8573 18.688C88.7266 18.8 88.5773 18.856 88.4093 18.856H87.9893C87.84 18.856 87.7186 18.828 87.6253 18.772C87.532 18.6973 87.448 18.604 87.3733 18.492C87.1866 18.1933 86.9626 17.9133 86.7013 17.652C86.44 17.3907 86.0853 17.1853 85.6373 17.036C85.208 16.868 84.62 16.784 83.8733 16.784C82.7533 16.784 81.9226 17.0173 81.3813 17.484C80.84 17.932 80.5693 18.5107 80.5693 19.22C80.5693 19.6307 80.6813 19.9947 80.9053 20.312C81.1293 20.6107 81.5493 20.8907 82.1653 21.152C82.7813 21.3947 83.6773 21.656 84.8533 21.936C86.048 22.1973 86.9906 22.524 87.6813 22.916C88.372 23.2893 88.8573 23.7373 89.1373 24.26C89.436 24.7827 89.5853 25.3987 89.5853 26.108C89.5853 26.8547 89.3706 27.5453 88.9413 28.18C88.5306 28.8147 87.9053 29.328 87.0653 29.72C86.244 30.0933 85.2266 30.28 84.0133 30.28ZM97.0946 30.28C96.1986 30.28 95.3679 30.0933 94.6026 29.72C93.8559 29.3467 93.2492 28.852 92.7826 28.236C92.3159 27.6013 92.0826 26.892 92.0826 26.108C92.0826 24.8387 92.5959 23.8213 93.6226 23.056C94.6492 22.2907 95.9839 21.796 97.6266 21.572L102.051 20.956V19.976C102.051 18.9867 101.743 18.212 101.127 17.652C100.529 17.0733 99.5679 16.784 98.2426 16.784C97.2719 16.784 96.4879 16.98 95.8906 17.372C95.2932 17.7453 94.8826 18.24 94.6586 18.856C94.5652 19.136 94.3879 19.276 94.1266 19.276H93.6786C93.4546 19.276 93.2959 19.22 93.2026 19.108C93.1092 18.9773 93.0626 18.828 93.0626 18.66C93.0626 18.3987 93.1559 18.072 93.3426 17.68C93.5479 17.288 93.8559 16.9053 94.2666 16.532C94.6772 16.14 95.2092 15.8133 95.8626 15.552C96.5159 15.2907 97.3092 15.16 98.2426 15.16C99.3439 15.16 100.249 15.3093 100.959 15.608C101.687 15.9067 102.247 16.2987 102.639 16.784C103.049 17.2507 103.339 17.7733 103.507 18.352C103.675 18.9307 103.759 19.5 103.759 20.06V29.384C103.759 29.5707 103.703 29.72 103.591 29.832C103.479 29.944 103.329 30 103.143 30H102.667C102.48 30 102.331 29.944 102.219 29.832C102.107 29.72 102.051 29.5707 102.051 29.384V28.068C101.827 28.404 101.509 28.74 101.099 29.076C100.688 29.412 100.156 29.7013 99.5026 29.944C98.8679 30.168 98.0652 30.28 97.0946 30.28ZM97.3746 28.656C98.2332 28.656 99.0172 28.4693 99.7266 28.096C100.436 27.7227 100.996 27.1533 101.407 26.388C101.836 25.604 102.051 24.624 102.051 23.448V22.496L98.4386 23C96.9079 23.2053 95.7506 23.56 94.9666 24.064C94.1826 24.568 93.7906 25.2027 93.7906 25.968C93.7906 26.584 93.9679 27.088 94.3226 27.48C94.6772 27.872 95.1252 28.1707 95.6666 28.376C96.2266 28.5627 96.7959 28.656 97.3746 28.656ZM108.774 30C108.588 30 108.429 29.9347 108.298 29.804C108.168 29.6733 108.102 29.5147 108.102 29.328V11.1C108.102 10.8947 108.168 10.7267 108.298 10.596C108.429 10.4653 108.588 10.4 108.774 10.4H116.026C118.285 10.4 120.068 10.9227 121.374 11.968C122.681 13.0133 123.334 14.5347 123.334 16.532C123.334 17.9133 122.989 19.0613 122.298 19.976C121.626 20.8907 120.721 21.5533 119.582 21.964L123.67 29.104C123.726 29.216 123.754 29.3187 123.754 29.412C123.754 29.58 123.689 29.72 123.558 29.832C123.446 29.944 123.316 30 123.166 30H120.618C120.301 30 120.058 29.916 119.89 29.748C119.722 29.58 119.592 29.412 119.498 29.244L115.886 22.608H111.994V29.328C111.994 29.5147 111.929 29.6733 111.798 29.804C111.686 29.9347 111.528 30 111.322 30H108.774ZM111.994 19.444H115.942C117.081 19.444 117.93 19.192 118.49 18.688C119.05 18.1653 119.33 17.4373 119.33 16.504C119.33 15.5707 119.05 14.8427 118.49 14.32C117.949 13.7787 117.1 13.508 115.942 13.508H111.994V19.444ZM132.882 30.28C131.389 30.28 130.129 30.0187 129.102 29.496C128.094 28.9733 127.319 28.236 126.778 27.284C126.255 26.332 125.957 25.2213 125.882 23.952C125.863 23.616 125.854 23.2053 125.854 22.72C125.854 22.2347 125.863 21.824 125.882 21.488C125.957 20.2 126.265 19.0893 126.806 18.156C127.366 17.204 128.15 16.4667 129.158 15.944C130.185 15.4213 131.426 15.16 132.882 15.16C134.338 15.16 135.57 15.4213 136.578 15.944C137.605 16.4667 138.389 17.204 138.93 18.156C139.49 19.0893 139.807 20.2 139.882 21.488C139.901 21.824 139.91 22.2347 139.91 22.72C139.91 23.2053 139.901 23.616 139.882 23.952C139.807 25.2213 139.499 26.332 138.958 27.284C138.435 28.236 137.661 28.9733 136.634 29.496C135.626 30.0187 134.375 30.28 132.882 30.28ZM132.882 27.508C133.871 27.508 134.637 27.2 135.178 26.584C135.719 25.9493 136.018 25.0253 136.074 23.812C136.093 23.532 136.102 23.168 136.102 22.72C136.102 22.272 136.093 21.908 136.074 21.628C136.018 20.4333 135.719 19.5187 135.178 18.884C134.637 18.2493 133.871 17.932 132.882 17.932C131.893 17.932 131.127 18.2493 130.586 18.884C130.045 19.5187 129.746 20.4333 129.69 21.628C129.671 21.908 129.662 22.272 129.662 22.72C129.662 23.168 129.671 23.532 129.69 23.812C129.746 25.0253 130.045 25.9493 130.586 26.584C131.127 27.2 131.893 27.508 132.882 27.508ZM145.07 35.32C144.921 35.32 144.79 35.264 144.678 35.152C144.566 35.04 144.51 34.9093 144.51 34.76C144.51 34.6853 144.51 34.6107 144.51 34.536C144.529 34.48 144.566 34.4053 144.622 34.312L146.806 29.132L141.43 16.448C141.355 16.2613 141.318 16.1307 141.318 16.056C141.337 15.888 141.402 15.748 141.514 15.636C141.626 15.5053 141.766 15.44 141.934 15.44H144.202C144.426 15.44 144.594 15.496 144.706 15.608C144.818 15.72 144.902 15.8413 144.958 15.972L148.682 25.128L152.518 15.972C152.574 15.8227 152.658 15.7013 152.77 15.608C152.882 15.496 153.05 15.44 153.274 15.44H155.514C155.663 15.44 155.794 15.496 155.906 15.608C156.037 15.72 156.102 15.8507 156.102 16C156.102 16.112 156.065 16.2613 155.99 16.448L148.066 34.788C147.991 34.9373 147.898 35.0587 147.786 35.152C147.674 35.264 147.506 35.32 147.282 35.32H145.07ZM162.17 30.28C161.199 30.28 160.322 30.0933 159.538 29.72C158.754 29.328 158.129 28.8147 157.662 28.18C157.214 27.5267 156.99 26.7987 156.99 25.996C156.99 24.6893 157.513 23.6533 158.558 22.888C159.622 22.104 161.022 21.5813 162.758 21.32L166.594 20.76V20.172C166.594 19.388 166.398 18.7813 166.006 18.352C165.614 17.9227 164.942 17.708 163.99 17.708C163.318 17.708 162.767 17.848 162.338 18.128C161.927 18.3893 161.619 18.744 161.414 19.192C161.265 19.4347 161.05 19.556 160.77 19.556H158.558C158.353 19.556 158.194 19.5 158.082 19.388C157.989 19.276 157.942 19.1267 157.942 18.94C157.961 18.6413 158.082 18.2773 158.306 17.848C158.53 17.4187 158.885 17.008 159.37 16.616C159.855 16.2053 160.481 15.86 161.246 15.58C162.011 15.3 162.935 15.16 164.018 15.16C165.194 15.16 166.183 15.3093 166.986 15.608C167.807 15.888 168.461 16.2707 168.946 16.756C169.431 17.2413 169.786 17.8107 170.01 18.464C170.234 19.1173 170.346 19.808 170.346 20.536V29.328C170.346 29.5147 170.281 29.6733 170.15 29.804C170.019 29.9347 169.861 30 169.674 30H167.406C167.201 30 167.033 29.9347 166.902 29.804C166.79 29.6733 166.734 29.5147 166.734 29.328V28.236C166.491 28.5907 166.165 28.9267 165.754 29.244C165.343 29.5427 164.839 29.7947 164.242 30C163.663 30.1867 162.973 30.28 162.17 30.28ZM163.122 27.62C163.775 27.62 164.363 27.48 164.886 27.2C165.427 26.92 165.847 26.4907 166.146 25.912C166.463 25.3147 166.622 24.568 166.622 23.672V23.084L163.822 23.532C162.721 23.7 161.899 23.9707 161.358 24.344C160.817 24.7173 160.546 25.1747 160.546 25.716C160.546 26.1267 160.667 26.4813 160.91 26.78C161.171 27.06 161.498 27.2747 161.89 27.424C162.282 27.5547 162.693 27.62 163.122 27.62ZM174.638 30C174.451 30 174.293 29.9347 174.162 29.804C174.031 29.6733 173.966 29.5147 173.966 29.328V10.792C173.966 10.6053 174.031 10.4467 174.162 10.316C174.293 10.1853 174.451 10.12 174.638 10.12H176.962C177.149 10.12 177.307 10.1853 177.438 10.316C177.569 10.4467 177.634 10.6053 177.634 10.792V29.328C177.634 29.5147 177.569 29.6733 177.438 29.804C177.307 29.9347 177.149 30 176.962 30H174.638Z" fill="white"/>
</svg>
